<svg xmlns="http://www.w3.org/2000/svg" xmlns:xlink="http://www.w3.org/1999/xlink" width="1240" height="1240" version="1.1" viewBox="0 0 1240 1240"><title>coffee</title><desc>Created with Sketch.</desc><g id="coffee" fill="none" fill-rule="evenodd" stroke="none" stroke-width="1"><g id="Group-2" stroke="#979797" transform="translate(304.000000, 320.000000)"><g id="Group" stroke-linecap="round" stroke-width="50" transform="translate(100.269679, 0.000000)"><path id="Line" d="M102.937127,36.826087 L102.937127,109.273632"/><path id="Line" d="M1.14795301,13.865077 L1.14795301,86.3126224"/><path id="Line" d="M205.062873,0 L205.062873,72.6129173"/><path id="Line" d="M307.392967,49.9782609 L307.392967,120.674212"/></g><path id="Rectangle" stroke-width="50" d="M28.2696793,206 C26.6128251,206 25.2696793,207.343146 25.2696793,209 L25.2696793,501 C25.2696793,542.421356 58.8483231,576 100.269679,576 L408.269679,576 C449.691036,576 483.269679,542.421356 483.269679,501 L483.269679,209 C483.269679,207.343146 481.926534,206 480.269679,206 L28.2696793,206 Z"/><path id="Path" stroke-width="60" d="M473,211 L514.726519,211 C583.376124,211 632,255.674348 632,309.871595 C632,364.068843 583.376124,421 514.726519,421 L479.149171,421"/></g></g></svg>