<svg xmlns="http://www.w3.org/2000/svg" xmlns:xlink="http://www.w3.org/1999/xlink" width="1240" height="1240" version="1.1" viewBox="0 0 1240 1240"><title>cpu</title><desc>Created with Sketch.</desc><g id="cpu" fill="none" fill-rule="evenodd" stroke="none" stroke-width="1"><g id="Group-4" stroke="#979797" stroke-width="50" transform="translate(245.000000, 245.000000)"><g id="Group-3" stroke-linecap="round" transform="translate(700.000000, 375.000000) rotate(90.000000) translate(-700.000000, -375.000000) translate(575.000000, 325.000000)"><path id="Line-4" d="M1,100 L1,0.5"/><path id="Line-4" d="M249,100 L249,0.5"/></g><g id="Group-3" stroke-linecap="round" transform="translate(50.000000, 375.000000) rotate(90.000000) translate(-50.000000, -375.000000) translate(-75.000000, 325.000000)"><path id="Line-4" d="M1,100 L1,0.5"/><path id="Line-4" d="M249,100 L249,0.5"/></g><path id="Line-4" stroke-linecap="round" d="M251,750 L251,650.5"/><path id="Line-4" stroke-linecap="round" d="M499,750 L499,650.5"/><path id="Line-4" stroke-linecap="round" d="M251,100 L251,0.5"/><path id="Line-4" stroke-linecap="round" d="M499,100 L499,0.5"/><rect id="Rectangle" width="500" height="500" x="125" y="125" rx="28"/><rect id="Rectangle" width="198" height="198" x="276" y="276" rx="28"/></g></g></svg>