<svg xmlns="http://www.w3.org/2000/svg" xmlns:xlink="http://www.w3.org/1999/xlink" width="1240" height="1240" version="1.1" viewBox="0 0 1240 1240"><title>flag</title><desc>Created with Sketch.</desc><g id="flag" fill="none" fill-rule="evenodd" stroke="none" stroke-width="1"><g id="Group" stroke="#979797" stroke-width="50" transform="translate(319.000000, 278.000000)"><path id="Rectangle" d="M25,66.354115 L25,394.914873 C121.627559,367.452064 176.656901,354.332149 196.358849,354.614979 C208.852693,354.794333 231.44765,361.708335 269.866491,376.121282 C305.32304,389.422917 354.06962,409.219816 416.193261,435.540616 C431.58081,442.060076 448.704987,443.253545 464.848127,438.931615 L572.816939,410.025614 C557.588339,334.015767 550,284.673442 550,260 C550,236.360236 557.130566,177.969182 571.509231,82.5242329 L480.650948,106.849309 C451.738998,114.589775 421.00938,111.699361 394.047882,98.7034634 C292.276086,49.6477375 224.689111,25 196,25 C164.413498,25 106.842524,38.7484435 25,66.354115 Z"/><path id="Line-5" stroke-linecap="square" d="M24.75,684.25 L25.25,96.75"/></g></g></svg>