<svg xmlns="http://www.w3.org/2000/svg" xmlns:xlink="http://www.w3.org/1999/xlink" width="1240" height="1240" version="1.1" viewBox="0 0 1240 1240"><title>globe</title><desc>Created with Sketch.</desc><g id="globe" fill="none" fill-rule="evenodd" stroke="none" stroke-width="1"><g id="Globe" stroke="#979797" stroke-width="50" transform="translate(302.000000, 303.000000)"><circle id="Oval" cx="318.948" cy="318.5" r="316.5"/><path id="Oval" d="M318.947761,635 C494.281095,635 494.281095,2 318.947761,2 C143.614428,2 143.614428,635 318.947761,635 Z"/><path id="Path-7" d="M320.447761,0 L316.447761,635"/><path id="Path-7" d="M320.447761,0 L316.447761,636" transform="translate(318.447761, 318.000000) rotate(90.000000) translate(-318.447761, -318.000000)"/><path id="Path-8" d="M76.4477612,511 C154.942261,469 234.894301,448 316.303885,448 C397.713468,448 480.09476,469 563.447761,511"/><path id="Path-8" d="M72.4477612,173 C150.942261,131 230.894301,110 312.303885,110 C393.713468,110 476.09476,131 559.447761,173" transform="translate(315.947761, 141.500000) scale(-1, 1) rotate(-180.000000) translate(-315.947761, -141.500000)"/></g></g></svg>