<svg xmlns="http://www.w3.org/2000/svg" xmlns:xlink="http://www.w3.org/1999/xlink" width="1240" height="1240" version="1.1" viewBox="0 0 1240 1240"><title>home</title><desc>Created with Sketch.</desc><g id="home" fill="none" fill-rule="evenodd" stroke="none" stroke-width="1"><g id="Group" stroke="#979797" stroke-width="50" transform="translate(284.000000, 258.000000)"><path id="Combined-Shape" fill-rule="nonzero" d="M279.820548,724 L640.843867,724 C657.412409,724 670.843867,710.568542 670.843867,694 L670.843867,306.069695 C670.843867,297.430244 667.119275,289.210187 660.623641,283.513974 L356.988719,17.2475965 C345.718122,7.36407893 328.881811,7.31687224 317.555967,17.1370325 L10.3470224,283.504925 C3.77518878,289.203084 -1.8828786e-14,297.473048 -5.68434189e-14,306.171209 L-5.68434189e-14,694 C-1.21035556e-13,710.568542 13.4314575,724 30,724 L107.196479,724 L107.196479,448 C107.196479,431.431458 120.627937,418 137.196479,418 L249.820548,418 C266.389091,418 279.820548,431.431458 279.820548,448 L279.820548,724 Z M58.3205481,724 L360.320548,724"/><rect id="Rectangle" width="137" height="153" x="410.821" y="422" rx="2"/></g></g></svg>