<svg xmlns="http://www.w3.org/2000/svg" xmlns:xlink="http://www.w3.org/1999/xlink" width="1240" height="1240" version="1.1" viewBox="0 0 1240 1240"><title>linkExternal</title><desc>Created with Sketch.</desc><g id="linkExternal" fill="none" fill-rule="evenodd" stroke="none" stroke-linecap="round" stroke-width="1"><g id="Group-4" stroke="#979797" stroke-width="50" transform="translate(281.000000, 295.000000)"><g id="Group-2" transform="translate(0.000000, 178.915522)"><g id="Group" transform="translate(0.000000, 0.773913)"><path id="Path" d="M471,228.253846 L471,428.247692 C471,451.85914 451.85914,471 428.247692,471 L42.7523077,471 C19.1408601,471 0,451.85914 0,428.247692 L0,42.7523077 C0,19.1408601 19.1408601,0 42.7523077,0 L42.7523077,0 L339.12,0"/></g></g><g id="Group-3" transform="translate(410.931935, 266.468777) rotate(45.000000) translate(-410.931935, -266.468777) translate(280.431935, 20.468777)"><g id="Group-2" transform="translate(130.364026, 245.678409) scale(1, -1) translate(-130.364026, -245.678409) translate(0.364026, 0.178409)"><g id="Group" transform="translate(0.628969, 0.000000)"><polyline id="Path" stroke-linejoin="round" points=".731 490 129.701 359 258.672 490" transform="translate(129.701456, 424.500000) scale(1, -1) translate(-129.701456, -424.500000)"/><path id="Line" d="M129.701456,450.474903 L129.701456,0.474903475"/></g></g></g></g></g></svg>