<svg xmlns="http://www.w3.org/2000/svg" xmlns:xlink="http://www.w3.org/1999/xlink" width="1240" height="1240" version="1.1" viewBox="0 0 1240 1240"><title>move</title><desc>Created with Sketch.</desc><g id="move" fill="none" fill-rule="evenodd" stroke="none" stroke-linecap="round" stroke-width="1"><g id="Group-2" stroke="#979797" stroke-width="50" transform="translate(289.000000, 310.000000)"><g id="Group" transform="translate(331.000000, 330.500000) rotate(180.000000) translate(-331.000000, -330.500000) translate(214.000000, 0.000000)"><polyline id="Path" stroke-linejoin="round" points=".191 661 116.691 542 233.191 661" transform="translate(116.691291, 601.500000) scale(1, -1) translate(-116.691291, -601.500000)"/><polyline id="Path" stroke-linejoin="round" points=".191 119 116.691 0 233.191 119"/><path id="Line" d="M117.941291,631 L116.691291,59"/></g><g id="Group" transform="translate(331.000000, 330.500000) rotate(90.000000) translate(-331.000000, -330.500000) translate(214.000000, 0.000000)"><polyline id="Path" stroke-linejoin="round" points=".191 661 116.691 542 233.191 661" transform="translate(116.691291, 601.500000) scale(1, -1) translate(-116.691291, -601.500000)"/><polyline id="Path" stroke-linejoin="round" points=".191 119 116.691 0 233.191 119"/><path id="Line" d="M117.941291,631 L116.691291,59"/></g></g></g></svg>