<svg xmlns="http://www.w3.org/2000/svg" xmlns:xlink="http://www.w3.org/1999/xlink" width="1240" height="1240" version="1.1" viewBox="0 0 1240 1240"><title>printer</title><desc>Created with Sketch.</desc><g id="printer" fill="none" fill-rule="evenodd" stroke="none" stroke-width="1"><g id="Group" stroke="#979797" stroke-width="50" transform="translate(261.000000, 258.000000)"><path id="Path" d="M155,580 L57,580 C25.5197693,580 0,554.480231 0,523 L0,315 C0,283.519769 25.5197693,258 57,258 L57,258 L660,258 C691.480231,258 717,283.519769 717,315 L717,523 C717,554.480231 691.480231,580 660,580 L550,580"/><rect id="Rectangle" width="378" height="254" x="164" y="444" rx="7"/><path id="Path" d="M145,270 L145,6.36363636 C145,2.84909705 148.134007,0 152,0 L566,0 C569.865993,0 573,2.84909705 573,6.36363636 L573,270"/></g></g></svg>