<svg xmlns="http://www.w3.org/2000/svg" xmlns:xlink="http://www.w3.org/1999/xlink" width="1240" height="1240" version="1.1" viewBox="0 0 1240 1240"><title>shoppingCart</title><desc>Created with Sketch.</desc><g id="shoppingCart" fill="none" fill-rule="evenodd" stroke="none" stroke-width="1"><g id="Cart-2" transform="translate(316.000000, 333.000000)"><g id="Cart"><g id="Group" stroke="#979797" stroke-width="50"><path id="Rectangle" fill-rule="nonzero" d="M154.290078,60.7622652 L587.366319,60.7622652 C598.614281,60.7622652 607.732556,69.8801669 607.732556,81.1276686 C607.732556,82.5347889 607.586717,83.9381207 607.297375,85.315174 L559.165315,314.388118 C557.184386,323.815869 548.868253,330.566017 539.234259,330.566017 L201.924257,330.566017 C192.274344,330.566017 183.949055,323.794047 181.984524,314.346607 L134.350345,85.2736624 C132.060482,74.2617029 139.131503,63.4785213 150.143914,61.1887521 C151.507746,60.9051757 152.897074,60.7622652 154.290078,60.7622652 Z"/><polyline id="Path-6" stroke-linecap="round" stroke-linejoin="round" points="153.812 178.113 114.346 0 0 0"/><polyline id="Path-6" stroke-linecap="round" stroke-linejoin="round" points="562.386 421.193 156.02 421.193 187.434 322.896"/></g><g id="Group-2" fill="#979797" fill-rule="nonzero" transform="translate(186.751958, 473.444259)"><ellipse id="Oval" cx="51.081" cy="50.522" rx="50.398" ry="50.337"/><ellipse id="Oval" cx="307.654" cy="50.522" rx="50.398" ry="50.337"/></g></g></g></g></svg>