<svg xmlns="http://www.w3.org/2000/svg" xmlns:xlink="http://www.w3.org/1999/xlink" width="1240" height="1240" version="1.1" viewBox="0 0 1240 1240"><title>shuffle</title><desc>Created with Sketch.</desc><g id="shuffle" fill="none" fill-rule="evenodd" stroke="none" stroke-linecap="round" stroke-width="1"><g id="Group-3" stroke="#979797" stroke-width="50" transform="translate(252.000000, 243.000000)"><g id="Group-2" transform="translate(367.500000, 368.000000) scale(-1, 1) rotate(45.000000) translate(-367.500000, -368.000000) translate(-18.000000, 234.000000)"><g id="Group" transform="translate(385.604816, 134.483696) scale(-1, 1) rotate(270.000000) translate(-385.604816, -134.483696) translate(252.104816, -250.516304)"><polyline id="Path" stroke-linejoin="round" points=".103 769.346 133.496 633.387 266.889 769.346" transform="translate(133.495864, 701.366723) scale(1, -1) translate(-133.495864, -701.366723)"/><path id="Line" d="M134.476697,735.356537 L134.476697,0.653650255"/></g></g><g id="Group-2" transform="translate(367.767909, 386.416141) scale(-1, -1) rotate(45.000000) translate(-367.767909, -386.416141) translate(-17.732091, 252.416141)"><g id="Group" transform="translate(385.604816, 134.483696) scale(-1, 1) rotate(270.000000) translate(-385.604816, -134.483696) translate(252.104816, -250.516304)"><polyline id="Path" stroke-linejoin="round" points=".103 769.346 133.496 633.387 266.889 769.346" transform="translate(133.495864, 701.366723) scale(1, -1) translate(-133.495864, -701.366723)"/><path id="Line" d="M134.476697,735.356537 L134.476697,0.653650255"/></g></g></g></g></svg>