<svg xmlns="http://www.w3.org/2000/svg" xmlns:xlink="http://www.w3.org/1999/xlink" width="1240" height="1240" version="1.1" viewBox="0 0 1240 1240"><title>sun</title><desc>Created with Sketch.</desc><g id="sun" fill="none" fill-rule="evenodd" stroke="none" stroke-width="1"><g id="Group-4" stroke="#979797" stroke-width="50" transform="translate(-175.000000, -174.000000)"><g id="Group-3" transform="translate(795.000000, 794.500000) rotate(45.000000) translate(-795.000000, -794.500000) translate(233.000000, 233.000000)"><g id="Group-2" transform="translate(562.000000, 561.500000) rotate(45.000000) translate(-562.000000, -561.500000) translate(165.000000, 165.000000)"><g id="Group" transform="translate(397.000000, 396.500000) rotate(45.000000) translate(-397.000000, -396.500000) translate(218.000000, 15.000000)"><circle id="Oval" cx="179" cy="384" r="179"/><path id="Path-12" stroke-linecap="round" d="M179,89 L179,0"/><path id="Path-12" stroke-linecap="round" d="M179,763 L179,674"/></g><path id="Path-12" stroke-linecap="round" d="M397,104 L397,15"/><path id="Path-12" stroke-linecap="round" d="M397,778 L397,689"/></g><path id="Path-12" stroke-linecap="round" d="M562,269 L562,180"/><path id="Path-12" stroke-linecap="round" d="M562,943 L562,854"/></g><path id="Path-12" stroke-linecap="round" d="M795,502 L795,413"/><path id="Path-12" stroke-linecap="round" d="M795,1176 L795,1087"/></g></g></svg>