<svg xmlns="http://www.w3.org/2000/svg" xmlns:xlink="http://www.w3.org/1999/xlink" width="1240" height="1240" version="1.1" viewBox="0 0 1240 1240"><title>sunrise</title><desc>Created with Sketch.</desc><g id="sunrise" fill="none" fill-rule="evenodd" stroke="none" stroke-width="1"><g id="Group-5" stroke="#979797" stroke-width="50" transform="translate(619.646447, 684.033748) rotate(135.000000) translate(-619.646447, -684.033748) translate(226.646447, 291.033748)"><path id="Path" d="M426,183 C327.14103,183 247,263.14103 247,362 C247,460.85897 327.14103,541 426,541 L426,541 C524.85897,541 605,460.85897 605,362"/><path id="Path-12" stroke-linecap="round" d="M426,741 L426,652"/><path id="Path-12" stroke-linecap="round" d="M187.705015,165.705015 L187.705015,76.7050147" transform="translate(187.705015, 121.205015) rotate(-45.000000) translate(-187.705015, -121.205015)"/><path id="Path-12" stroke-linecap="round" d="M664.294985,642.294985 L664.294985,553.294985" transform="translate(664.294985, 597.794985) rotate(-45.000000) translate(-664.294985, -597.794985)"/><path id="Path-12" stroke-linecap="round" d="M89,404 L89,315" transform="translate(89.000000, 359.500000) rotate(-90.000000) translate(-89.000000, -359.500000)"/><path id="Path-12" stroke-linecap="round" d="M145.632161,743.867839 L145.632161,535.867839" transform="translate(145.632161, 639.867839) rotate(-135.000000) translate(-145.632161, -639.867839)"/><polyline id="Path" stroke-linecap="round" stroke-linejoin="round" points="6.606 736.289 94.236 647.289 181.865 736.289" transform="translate(94.235591, 691.788548) scale(-1, 1) rotate(135.000000) translate(-94.235591, -691.788548)"/><path id="Path-13" stroke-linecap="round" d="M134.302561,270.404546 L897.302561,270.404546" transform="translate(515.802561, 270.404546) rotate(-135.000000) translate(-515.802561, -270.404546)"/></g></g></svg>