<svg xmlns="http://www.w3.org/2000/svg" xmlns:xlink="http://www.w3.org/1999/xlink" width="1240" height="1240" version="1.1" viewBox="0 0 1240 1240"><title>trash2</title><desc>Created with Sketch.</desc><g id="trash2" fill="none" fill-rule="evenodd" stroke="none" stroke-width="1"><g id="Group-2" stroke="#979797" stroke-width="50" transform="translate(325.000000, 280.000000)"><path id="Path" d="M526,119 L526,579 C526,635.333044 483.469765,681 431.006061,681 L159.993939,681 C107.530235,681 65,635.333044 65,579 L65,119 C65,108.50659 73.5065898,100 84,100 L507,100 C517.49341,100 526,108.50659 526,119 Z"/><path id="Path-14" stroke-linecap="round" d="M0,100 L590,100"/><g id="Group" stroke-linecap="round" transform="translate(226.000000, 276.000000)"><path id="Path-15" d="M0.5,229 L0.5,0"/><path id="Path-15" d="M138.5,229 L138.5,0"/></g><path id="Shape" d="M396,100 C396,44.771525 351.228475,0 296,0 C240.771525,0 196,44.771525 196,100"/></g></g></svg>