<svg xmlns="http://www.w3.org/2000/svg" xmlns:xlink="http://www.w3.org/1999/xlink" width="1241" height="1240" version="1.1" viewBox="0 0 1241 1240"><title>watch</title><desc>Created with Sketch.</desc><g id="watch" fill="none" fill-rule="evenodd" stroke="none" stroke-width="1" transform="translate(1.000000, 0.000000)"><g id="Group-2" stroke="#979797" stroke-width="50" transform="translate(370.000000, 228.000000)"><g id="Group" transform="translate(0.000000, 142.000000)"><circle id="Oval" cx="250" cy="250" r="250"/><polyline id="Path-7" stroke-linecap="round" stroke-linejoin="round" points="337.857 297.857 250 250 250 97.857"/></g><path id="Path" d="M117,183 L117,29 C117,12.9837423 129.983742,2.94213882e-15 146,0 L353,0 C369.016258,-2.94213882e-15 382,12.9837423 382,29 L382,183"/><path id="Path" d="M117,785 L117,621 C117,604.983742 129.983742,592 146,592 L353,592 C369.016258,592 382,604.983742 382,621 L382,785" transform="translate(249.500000, 688.500000) scale(1, -1) translate(-249.500000, -688.500000)"/></g></g></svg>