<svg xmlns="http://www.w3.org/2000/svg" xmlns:xlink="http://www.w3.org/1999/xlink" width="1240" height="1240" version="1.1" viewBox="0 0 1240 1240"><title>Artboard</title><desc>Created with Sketch.</desc><g id="Artboard" fill="none" fill-rule="evenodd" stroke="none" stroke-width="1"><circle id="Oval" cx="620" cy="621" r="314" stroke="#000" stroke-width="40"/><path id="Oval" stroke="#000" stroke-width="40" d="M620,935 C793.333333,935 793.333333,307 620,307 C446.666667,307 446.666667,935 620,935 Z"/><path id="Path-7" stroke="#000" stroke-width="40" d="M622,305 L618,935"/><path id="Path-7" stroke="#000" stroke-width="40" d="M622,305 L618,936" transform="translate(620.000000, 620.500000) rotate(90.000000) translate(-620.000000, -620.500000)"/><path id="Path-8" stroke="#000" stroke-width="40" d="M380,812 C457.849781,770.666667 537.145131,750 617.886053,750 C698.626974,750 780.331623,770.666667 863,812"/><path id="Path-8" stroke="#000" stroke-width="40" d="M376,476 C453.849781,434.666667 533.145131,414 613.886053,414 C694.626974,414 776.331623,434.666667 859,476" transform="translate(617.500000, 445.000000) scale(1, -1) translate(-617.500000, -445.000000)"/></g></svg>